<svg width="18" height="22" viewBox="0 0 18 22" fill="none" xmlns="http://www.w3.org/2000/svg">
<path fill-rule="evenodd" clip-rule="evenodd" d="M8.99654 8.93913C10.0074 8.93913 10.9768 8.49388 11.6916 7.70134C12.4064 6.90879 12.8079 5.83387 12.8079 4.71304C12.8079 3.59221 12.4064 2.51729 11.6916 1.72475C10.9768 0.932201 10.0074 0.486954 8.99654 0.486954C7.98569 0.486954 7.01625 0.932201 6.30147 1.72475C5.58669 2.51729 5.18514 3.59221 5.18514 4.71304C5.18514 5.83387 5.58669 6.90879 6.30147 7.70134C7.01625 8.49388 7.98569 8.93913 8.99654 8.93913ZM0.103271 21.6174C0.103271 20.3224 0.333303 19.0402 0.780231 17.8438C1.22716 16.6474 1.88223 15.5604 2.70805 14.6447C3.53386 13.729 4.51425 13.0027 5.59323 12.5071C6.67221 12.0116 7.82865 11.7565 8.99654 11.7565C10.1644 11.7565 11.3209 12.0116 12.3998 12.5071C13.4788 13.0027 14.4592 13.729 15.285 14.6447C16.1108 15.5604 16.7659 16.6474 17.2128 17.8438C17.6598 19.0402 17.8898 20.3224 17.8898 21.6174H0.103271Z" fill="#9FB3B2"/>
</svg>
